#!OML:ASF F:\VICON\USERDATA\INSTALL\rory3\rory3.ASF
:FULLY-SPECIFIED
:DEGREES
271
root -1.24162 15.7073 -9.50612 -156.096 -10.0323 -180.76
lowerback -15.0398 -2.12453 -0.179328
upperback -10.2647 -4.46213 1.93652
thorax -2.29885 -2.89442 1.58733
lowerneck -16.1965 1.05406 -2.27015
upperneck 31.0056 -0.04579 0.855434
head 13.0695 -0.930377 0.543555
rclavicle 4.77083e-015 2.14687e-014
rhumerus -2.04358 18.962 -98.6668
rradius 39.4462
rwrist -52.9833
rhand 0.747791 2.53035
rfingers 7.12502
rthumb 26.3064 -25.6655
lclavicle 4.77083e-015 2.14687e-014
lhumerus 17.2027 -54.5217 90.2509
lradius 45.468
lwrist 8.51662
lhand -12.8544 22.902
lfingers 7.12502
lthumb 13.2335 52.462
rfemur -68.3683 -2.79878 23.7781
rtibia 54.5281
rfoot -5.23082 -16.4673
rtoes 10.4978
lfemur -3.2207 -9.01739 -24.5982
ltibia 35.568
lfoot -19.3374 24.4378
ltoes -11.2301
272
root -1.22039 15.8395 -9.76339 -157.068 -11.312 -180.581
lowerback -14.9556 -2.34511 0.202375
upperback -10.1016 -4.73994 1.92212
thorax -2.18668 -3.02678 1.3189
lowerneck -15.92 0.869782 -2.04442
upperneck 31.0759 -0.332723 0.537707
head 13.0462 -1.08935 0.332454
rclavicle 7.85199e-015 6.36111e-015
rhumerus -0.42727 24.6148 -97.6802
rradius 41.9487
rwrist -51.7992
rhand -1.93469 6.27941
rfingers 7.12502
rthumb 23.736 -22.2748
lclavicle 7.85199e-015 6.36111e-015
lhumerus 23.6049 -56.2728 84.4451
lradius 47.75
lwrist 11.0157
lhand -11.4401 23.5959
lfingers 7.12502
lthumb 14.5965 53.0622
rfemur -65.5553 -3.09439 24.0539
rtibia 54.0665
rfoot -6.85866 -17.5847
rtoes 12.6821
lfemur -1.96234 -9.19181 -23.8276
ltibia 35.2478
lfoot -16.5866 25.1151
ltoes -12.2853
273
root -1.17702 15.9438 -9.98565 -157.163 -11.2884 -180.969
lowerback -15.1683 -2.29122 -0.710118
upperback -10.3687 -4.62894 1.88232
thorax -2.30999 -2.95581 1.80187
lowerneck -15.4536 0.721752 -2.21765
upperneck 31.3916 -0.602199 0.471233
head 13.0836 -1.28264 0.285511
rclavicle -2.4202e-014 1.55052e-014
rhumerus 1.4936 27.7043 -96.0248
rradius 44.7104
rwrist -51.4361
rhand -0.385207 5.76002
rfingers 7.12502
rthumb 25.2214 -22.5932
lclavicle -2.4202e-014 1.55052e-014
lhumerus 29.0093 -57.2819 79.6542
lradius 49.8985
lwrist 11.6822
lhand -10.2477 24.0642
lfingers 7.12502
lthumb 15.7451 53.4437
rfemur -64.0276 -1.6662 22.9671
rtibia 53.4524
rfoot -6.89243 -19.1682
rtoes 11.7799
lfemur -2.0699 -9.25103 -24.1217
ltibia 35.1752
lfoot -14.88 25.8444
ltoes -9.58019
274
root -1.14631 16.0521 -10.1945 -157.465 -11.6011 -180.96
lowerback -14.8715 -2.1836 -0.913004
upperback -10.8543 -4.56147 1.86893
thorax -2.98307 -2.94585 1.96171
lowerneck -14.6253 0.636797 -2.4484
upperneck 31.7817 -0.890416 0.568361
head 13.0755 -1.49402 0.306605
rclavicle -3.11098e-014 -1.98785e-014
rhumerus 2.57674 29.4039 -95.0551
rradius 47.5901
rwrist -51.3038
rhand 0.273303 5.37716
rfingers 7.12502
rthumb 25.8521 -22.8857
lclavicle -3.11098e-014 -1.98785e-014
lhumerus 33.2904 -57.9133 75.7067
lradius 52.0356
lwrist 13.0195
lhand -9.44163 24.2837
lfingers 7.12502
lthumb 16.5213 53.6004
rfemur -62.3373 -0.540824 22.4774
rtibia 52.693
rfoot -6.31055 -20.4991
rtoes 9.83209
lfemur -2.2167 -9.43423 -23.9665
ltibia 35.1815
lfoot -16.1177 25.2931
ltoes -9.88953
275
root -1.10272 16.168 -10.4183 -157.686 -11.7069 -180.756
lowerback -15.3268 -2.10892 -1.24494
upperback -10.8853 -4.45116 1.93936
thorax -2.75817 -2.8847 2.20616
lowerneck -14.1034 0.534989 -2.52383
upperneck 31.8807 -1.1265 0.604558
head 13.01 -1.63305 0.294289
rclavicle 5.34234e-014 -1.90833e-014
rhumerus 4.93605 31.8596 -93.0999
rradius 49.7358
rwrist -50.9796
rhand 1.05303 6.64434
rfingers 7.12502
rthumb 26.5986 -21.5076
lclavicle 5.34234e-014 -1.90833e-014
lhumerus 38.4443 -57.859 70.9031
lradius 54.0049
lwrist 14.1308
lhand -8.24682 24.2004
lfingers 7.12502
lthumb 17.6713 53.4174
rfemur -60.71 1.04431 22.1261
rtibia 51.7935
rfoot -6.98473 -22.0683
rtoes 11.6325
lfemur -2.81168 -9.17779 -23.5937
ltibia 35.4147
lfoot -16.6076 25.0332
ltoes -9.53487
276
root -1.13004 16.3225 -10.6233 -158.502 -13.4197 -180.004
lowerback -15.7572 -2.20279 0.2538
upperback -10.1386 -4.58493 2.09993
thorax -1.79963 -2.95416 1.44361
lowerneck -14.8784 0.193455 -3.07468
upperneck 31.8267 -1.40416 0.82736
head 13.1662 -1.74354 0.439041
rclavicle -5.2181e-015 2.0276e-014
rhumerus 9.0319 33.945 -89.585
rradius 51.6575
rwrist -49.9986
rhand 1.94883 7.79806
rfingers 7.12502
rthumb 27.4557 -20.2209
lclavicle -5.2181e-015 2.0276e-014
lhumerus 45.3058 -57.1032 64.8858
lradius 56.1637
lwrist 14.6709
lhand -6.78142 24.5965
lfingers 7.12502
lthumb 19.081 53.6805
rfemur -58.1283 0.105229 23.3359
rtibia 50.6983
rfoot -6.36337 -22.1359
rtoes 7.05411
lfemur -3.03053 -9.50549 -22.3566
ltibia 35.5897
lfoot -15.2545 25.3182
ltoes -11.6753
277
root -1.0983 16.4588 -10.8129 -158.187 -13.1297 -179.744
lowerback -16.3636 -1.91317 0.16299
upperback -10.3841 -4.2894 2.11354
thorax -1.74961 -2.84216 1.52734
lowerneck -14.556 0.177057 -3.20654
upperneck 32.1054 -1.56527 1.03611
head 13.2211 -1.83895 0.512346
rclavicle 3.79182e-014 -2.38542e-015
rhumerus 11.0611 34.5267 -88.0014
rradius 53.6463
rwrist -47.8719
rhand 3.74706 7.54564
rfingers 7.12502
rthumb 29.1742 -20.188
lclavicle 3.79182e-014 -2.38542e-015
lhumerus 49.2946 -56.7764 60.8064
lradius 58.7901
lwrist 16.2892
lhand -7.13995 26.1219
lfingers 7.12502
lthumb 18.7362 55.2395
rfemur -57.1702 1.99228 22.8673
rtibia 49.5651
rfoot -5.77545 -23.3642
rtoes 7.59877
lfemur -4.6279 -8.67052 -22.0849
ltibia 35.5931
lfoot -14.5249 25.7045
ltoes -13.1793
278
root -1.11271 16.6261 -10.9709 -158.549 -13.8897 -179.137
lowerback -15.7331 -1.61077 1.3334
upperback -10.8669 -4.10302 2.08435
thorax -2.67506 -2.84296 0.940343
lowerneck -13.7272 0.0914762 -3.44273
upperneck 32.5197 -1.87207 1.11083
head 13.2292 -2.06703 0.525615
rclavicle -3.83654e-014 -1.07344e-014
rhumerus 13.0153 36.0499 -85.4273
rradius 56.2176
rwrist -47.7425
rhand 4.48798 6.75189
rfingers 7.12502
rthumb 29.8815 -20.8568
lclavicle -3.83654e-014 -1.07344e-014
lhumerus 51.6764 -56.3747 58.5231
lradius 60.7195
lwrist 17.2666
lhand -6.75663 26.1373
lfingers 7.12502
lthumb 19.1049 55.219
rfemur -55.4384 2.19775 23.3103
rtibia 48.3553
rfoot -5.03817 -23.9125
rtoes 8.28808
lfemur -5.56775 -8.39218 -21.3166
ltibia 35.421
lfoot -14.4492 25.5445
ltoes -13.4809
279
root -1.07556 16.7762 -11.1563 -158.424 -13.7135 -180.334
lowerback -15.9064 -1.63263 -0.347744
upperback -10.8237 -3.90576 1.74566
thorax -2.47149 -2.65731 1.53642
lowerneck -13.4537 -0.231678 -3.69485
upperneck 32.6157 -2.37795 1.21109
head 13.2312 -2.32352 0.530789
rclavicle -6.36111e-015 -2.10712e-014
rhumerus 15.143 36.2266 -83.1068
rradius 58.4527
rwrist -46.6554
rhand 5.74128 6.6006
rfingers 7.12502
rthumb 31.0768 -20.7862
lclavicle -6.36111e-015 -2.10712e-014
lhumerus 55.5779 -55.6866 54.634
lradius 62.8027
lwrist 18.6386
lhand -6.65163 25.883
lfingers 7.12502
lthumb 19.2058 54.9547
rfemur -54.1972 3.6706 21.2547
rtibia 47.4241
rfoot -3.84516 -25.2254
rtoes 7.06037
lfemur -6.55484 -7.70623 -22.4766
ltibia 35.0615
lfoot -13.8095 25.2761
ltoes -13.1394
